# xmcd CD database file
#
# Track frame offsets:
#	150
#	15551
#	31773
#	49049
#	66665
#	80159
#	97584
#	110510
#	123561
#	136878
#	152550
#	167965
#	187136
#
# Disc length: 2632 seconds
#
# Revision: 0
# Processed by: cddbd v1.5.2PL0 Copyright (c) Steve Scherf et al.
# Submitted via: CDex 1.70beta2
#
DISCID=ac0a460d
DTITLE=Bluehouse - One More Kiss
DYEAR=1900
DGENRE=Country
TTITLE0=Walking Down The Line
TTITLE1=Beside You
TTITLE2=Eyes Closed
TTITLE3=One More Kiss
TTITLE4=Sydney 2
TTITLE5=Easy Wa
TTITLE6=Maybe
TTITLE7=Help Me Make It Through The Night
TTITLE8=Know You Still
TTITLE9=Wasting My Time
TTITLE10=Esy To Be Hard
TTITLE11=Just Won't Wait
TTITLE12=Do Right Woman
EXTD=
EXTT0=
EXTT1=
EXTT2=
EXTT3=
EXTT4=
EXTT5=
EXTT6=
EXTT7=
EXTT8=
EXTT9=
EXTT10=
EXTT11=
EXTT12=
PLAYORDER=
